<?xml version="1.0" standalone="no"?>
<!DOCTYPE svg PUBLIC "-//W3C//DTD SVG 20010904//EN"
 "http://www.w3.org/TR/2001/REC-SVG-20010904/DTD/svg10.dtd">
<svg version="1.0" xmlns="http://www.w3.org/2000/svg"
 width="500.000000pt" height="500.000000pt" viewBox="0 0 500.000000 500.000000"
 preserveAspectRatio="xMidYMid meet">

<g transform="translate(0.000000,500.000000) scale(0.100000,-0.100000)"
fill="white" stroke="none">
<path d="M2360 4500 c-248 -22 -480 -111 -675 -259 -254 -193 -418 -443 -497
-756 -20 -79 -22 -116 -22 -305 -1 -191 2 -225 22 -305 29 -114 62 -206 106
-293 36 -71 141 -231 160 -244 14 -10 86 -10 86 -1 0 3 -24 38 -53 77 -57 76
-137 207 -137 225 0 16 132 14 241 -5 204 -35 349 -91 585 -225 216 -123 286
-151 397 -157 128 -7 129 8 2 52 -127 44 -163 61 -325 156 -312 184 -546 260
-808 263 l-127 2 -20 57 c-10 31 -17 59 -15 62 14 14 201 36 306 36 263 0 474
-47 769 -172 344 -146 556 -211 770 -237 102 -12 284 -13 363 -2 29 4 55 5 57
1 2 -4 -18 -34 -45 -68 -28 -33 -50 -64 -50 -67 0 -3 21 -5 48 -3 46 3 48 4
95 73 156 230 229 442 243 702 16 317 -62 591 -237 837 -73 102 -237 262 -342
332 -256 173 -574 252 -897 224z m420 -96 c250 -61 445 -167 616 -338 201
-202 319 -433 362 -709 5 -32 6 -60 2 -62 -19 -12 -297 137 -471 251 -160 105
-337 253 -451 376 -57 61 -122 131 -145 156 l-42 44 -71 -4 c-39 -3 -96 -1
-127 4 -83 13 -106 1 -210 -111 -95 -102 -293 -274 -375 -326 -26 -17 -47 -33
-48 -37 0 -13 39 -48 55 -48 38 0 311 231 440 371 l70 77 120 -4 c111 -3 121
-5 138 -26 138 -173 301 -324 518 -478 140 -100 271 -177 469 -276 74 -37 137
-68 139 -70 2 -2 -2 -59 -8 -126 -13 -138 -39 -258 -55 -258 -15 0 -103 34
-112 43 -8 8 21 78 49 119 24 36 14 52 -21 34 -29 -16 -83 -69 -100 -101 -10
-17 -11 -12 -12 30 0 50 27 162 50 204 6 13 9 25 6 29 -11 10 -67 -52 -92
-101 l-25 -48 -35 70 c-36 72 -76 111 -114 111 -21 0 -21 0 4 -32 13 -18 33
-60 44 -93 22 -66 38 -165 27 -165 -4 0 -33 16 -65 35 -96 58 -279 142 -380
174 -143 45 -258 63 -405 64 -201 0 -244 -10 -705 -171 -63 -22 -126 -42 -140
-44 -23 -3 -25 0 -25 42 l0 44 43 8 c95 16 154 72 168 158 4 25 18 65 31 89
48 92 17 195 -74 244 -40 21 -53 34 -53 51 0 28 -36 82 -71 108 -60 45 -177
31 -229 -28 -26 -30 -50 -88 -50 -122 0 -7 -16 -27 -36 -45 -47 -40 -64 -82
-64 -152 0 -64 9 -85 55 -135 18 -19 35 -47 39 -63 11 -46 56 -88 111 -102 50
-12 50 -12 53 -57 l3 -45 -93 -7 c-52 -4 -125 -13 -163 -21 -38 -8 -70 -13
-72 -11 -8 8 -23 180 -23 271 0 107 21 258 46 340 103 329 289 558 614 753 60
36 201 88 300 111 174 40 435 42 590 5z m-1129 -754 c26 -15 49 -62 49 -105 0
-25 4 -35 15 -35 26 0 93 -38 109 -62 29 -42 19 -105 -26 -154 -11 -12 -19
-28 -18 -35 9 -60 -44 -129 -98 -129 -66 0 -54 88 23 174 56 61 38 93 -23 41
-17 -14 -32 -25 -35 -25 -2 0 -7 23 -10 52 -11 93 -38 83 -52 -19 l-7 -53 -44
32 c-24 17 -47 28 -51 25 -10 -11 15 -58 43 -79 33 -27 54 -70 54 -113 0 -29
-4 -35 -21 -35 -28 0 -79 53 -79 82 0 14 -13 33 -35 51 -45 35 -61 87 -46 144
12 44 51 83 82 83 16 0 19 8 19 58 1 59 10 80 45 100 25 14 80 15 106 2z
m1048 -556 c125 -18 314 -79 426 -138 l80 -41 -115 -6 c-180 -10 -347 -57
-497 -139 l-72 -40 -198 76 c-183 71 -358 124 -410 124 -38 0 -35 19 4 35 140
59 330 114 483 138 61 10 201 6 299 -9z m753 -288 c123 -25 228 -66 228 -88 0
-8 -15 -45 -34 -84 l-34 -71 -112 -13 c-191 -22 -428 -2 -632 54 -103 28 -228
72 -242 86 -11 11 119 72 211 100 183 55 398 61 615 16z"/>
<path d="M2584 3761 c4 -24 22 -77 41 -119 39 -84 127 -179 229 -246 64 -42
156 -82 156 -67 0 5 -19 24 -42 42 -102 79 -172 149 -220 219 -41 59 -136 180
-166 210 -3 3 -2 -15 2 -39z"/>
<path d="M2278 3636 c-43 -56 -121 -149 -174 -205 -53 -57 -94 -105 -91 -107
16 -16 187 95 239 156 59 67 69 84 89 152 36 119 23 120 -63 4z"/>
<path d="M3472 2037 c-46 -15 -105 -75 -120 -123 -29 -97 -2 -190 71 -248 34
-27 48 -31 112 -34 62 -4 82 0 121 18 119 58 150 244 55 339 -56 56 -153 76
-239 48z m141 -65 c34 -31 50 -75 51 -137 0 -95 -41 -155 -107 -155 -125 0
-162 246 -46 308 29 15 76 8 102 -16z"/>
<path d="M3905 2037 c-42 -20 -65 -49 -71 -89 -10 -56 17 -95 84 -125 89 -38
106 -50 116 -77 13 -35 -15 -66 -61 -66 -25 0 -44 10 -77 40 -59 54 -70 52
-64 -11 3 -27 10 -55 15 -60 5 -5 48 -12 94 -16 67 -4 91 -2 116 10 49 26 73
63 73 114 0 57 -33 90 -119 123 -72 27 -83 38 -79 82 3 30 6 33 40 36 30 3 44
-3 77 -33 22 -20 45 -34 51 -30 12 7 13 74 2 93 -13 19 -160 26 -197 9z"/>
<path d="M809 2013 c0 -16 -2 -36 -4 -46 -6 -30 24 -32 54 -3 28 27 70 35 72
14 0 -7 0 -76 0 -152 0 -110 -4 -142 -16 -156 -8 -9 -15 -20 -15 -23 0 -4 36
-7 80 -7 80 0 93 6 65 30 -12 10 -15 42 -15 166 l0 154 29 0 c20 0 36 -9 49
-25 20 -25 46 -33 56 -17 2 4 2 27 -1 50 l-6 42 -173 0 -174 0 -1 -27z"/>
<path d="M1220 2026 c0 -7 7 -19 15 -26 23 -19 22 -306 -2 -332 -9 -10 -14
-20 -12 -22 2 -3 71 -6 153 -7 167 -2 155 -7 170 74 9 46 -4 48 -50 7 -33 -29
-85 -45 -121 -38 -15 3 -18 14 -21 71 l-3 67 28 0 c15 -1 39 -7 53 -15 37 -21
40 -19 40 35 0 54 -3 56 -40 35 -14 -8 -37 -14 -52 -15 -28 0 -28 1 -28 66 l0
66 55 -4 c38 -3 62 -11 78 -26 33 -31 47 -28 47 12 0 67 3 66 -161 66 -120 0
-149 -3 -149 -14z"/>
<path d="M1610 2026 c0 -7 7 -19 15 -26 12 -10 15 -42 15 -165 0 -123 -3 -155
-15 -165 -28 -24 -15 -30 65 -30 80 0 94 6 65 30 -12 10 -15 28 -13 69 3 48 6
56 23 56 15 0 29 -17 52 -63 17 -35 40 -70 50 -78 25 -19 133 -19 133 0 0 8
-9 17 -19 21 -19 6 -91 104 -91 123 0 6 16 26 35 45 30 30 35 42 35 80 0 55
-27 92 -78 107 -20 5 -90 10 -154 10 -94 0 -118 -3 -118 -14z m223 -50 c10 -8
20 -30 24 -49 7 -48 -29 -87 -82 -87 l-35 0 0 75 0 75 38 0 c20 0 45 -7 55
-14z"/>
<path d="M2050 2030 c0 -5 9 -19 20 -30 18 -18 20 -33 20 -163 0 -131 -2 -146
-20 -162 -11 -10 -20 -22 -20 -27 0 -10 157 -11 164 0 3 5 -4 16 -15 25 -14
12 -19 30 -19 66 0 28 5 53 10 56 22 14 49 -8 66 -52 10 -25 29 -59 42 -75 21
-25 30 -28 82 -28 32 0 61 4 65 9 3 5 -8 19 -24 30 -16 12 -44 45 -61 73 l-32
52 30 25 c75 64 69 151 -13 191 -35 17 -61 20 -168 20 -78 0 -127 -4 -127 -10z
m232 -57 c51 -60 12 -133 -72 -133 l-30 0 0 75 0 75 43 0 c29 0 49 -6 59 -17z"/>
<path d="M2490 2025 c0 -7 8 -18 18 -24 15 -8 17 -29 20 -151 4 -134 3 -144
-18 -172 -12 -16 -20 -31 -18 -33 5 -5 308 -8 313 -3 2 2 7 27 11 56 8 61 0
65 -45 23 -21 -20 -47 -32 -76 -37 -70 -10 -76 -4 -73 68 3 57 5 63 26 66 12
2 36 -4 54 -12 17 -9 35 -16 40 -16 4 0 8 23 8 50 0 28 -3 50 -7 50 -4 0 -26
-7 -50 -16 -62 -24 -73 -16 -73 56 l0 60 49 0 c38 0 56 -6 79 -25 17 -14 38
-25 47 -25 15 0 17 6 11 38 -3 20 -6 43 -6 50 0 9 -38 12 -155 12 -129 0 -155
-2 -155 -15z"/>
<path d="M2886 2031 c-3 -4 3 -16 14 -26 18 -16 20 -31 20 -166 0 -141 -1
-149 -22 -169 -31 -28 -12 -39 60 -35 65 4 72 9 43 32 -20 17 -22 25 -19 128
l3 109 108 -137 c106 -134 131 -154 155 -124 5 7 10 84 11 181 2 157 3 171 21
183 31 22 14 33 -50 33 -66 0 -79 -9 -50 -35 17 -16 20 -31 20 -112 0 -51 -3
-93 -7 -92 -5 0 -48 54 -98 119 l-90 119 -57 0 c-31 1 -59 -3 -62 -8z"/>
<path d="M1644 1500 c-150 -35 -183 -261 -49 -338 59 -34 157 -28 210 12 69
53 93 150 56 231 -38 83 -120 119 -217 95z m106 -68 c52 -53 52 -171 0 -224
-33 -33 -54 -35 -96 -9 -41 25 -58 75 -52 154 4 50 9 64 32 84 37 32 80 30
116 -5z"/>
<path d="M4026 1496 c-57 -21 -94 -63 -112 -124 -17 -59 -9 -120 23 -169 59
-89 270 -82 281 10 4 34 -11 35 -50 2 -69 -58 -162 -11 -169 85 -6 71 2 102
30 131 45 44 90 41 134 -11 19 -22 37 -40 40 -40 4 0 7 24 7 54 0 62 0 61 -90
70 -36 4 -69 1 -94 -8z"/>
<path d="M370 1486 c0 -8 5 -18 10 -21 6 -4 10 -63 10 -145 0 -82 -4 -141 -10
-145 -5 -3 -10 -13 -10 -21 0 -11 23 -14 130 -14 l130 0 5 28 c4 15 8 37 11
49 7 35 -14 37 -47 3 -28 -27 -37 -31 -78 -28 l-46 3 -3 120 c-2 107 -1 122
18 147 11 15 20 30 20 33 0 3 -31 5 -70 5 -54 0 -70 -3 -70 -14z"/>
<path d="M805 1483 c4 -10 9 -25 12 -33 7 -24 -76 -231 -104 -262 -33 -35 -23
-48 37 -48 52 0 69 12 50 35 -6 8 -10 24 -8 37 3 21 8 23 68 23 61 0 65 -2 68
-24 2 -13 -1 -28 -7 -34 -27 -27 -11 -37 58 -37 78 0 93 11 63 43 -11 12 -46
88 -78 170 l-57 147 -55 0 c-48 0 -53 -2 -47 -17z m79 -140 c22 -63 22 -63
-24 -63 -26 0 -40 4 -40 13 0 26 32 107 40 102 4 -3 15 -26 24 -52z"/>
<path d="M1206 1491 c-3 -5 1 -14 9 -21 22 -18 22 -275 0 -297 -24 -24 -8 -33
60 -33 67 0 91 14 62 35 -12 9 -17 28 -17 69 0 55 1 56 28 56 15 0 36 -7 46
-15 26 -20 36 -10 36 35 0 39 -13 60 -25 40 -3 -5 -24 -10 -46 -10 l-39 0 0
50 0 50 42 0 c32 0 49 -6 70 -27 23 -22 28 -24 33 -11 4 9 5 31 3 50 l-3 33
-127 3 c-69 1 -129 -2 -132 -7z"/>
<path d="M1920 1487 c0 -8 7 -20 15 -27 23 -19 22 -256 -1 -281 -25 -27 -8
-39 56 -39 60 0 86 15 56 32 -11 6 -16 23 -16 58 0 43 3 50 20 50 15 0 27 -14
44 -52 29 -67 45 -80 106 -86 44 -4 50 -2 50 14 0 11 -10 24 -22 29 -12 6 -33
31 -47 57 l-26 46 22 24 c49 52 49 125 0 162 -24 18 -46 21 -143 25 -96 3
-114 1 -114 -12z m197 -54 c33 -44 -6 -113 -63 -113 -23 0 -24 3 -24 71 l0 72
37 -6 c21 -4 44 -14 50 -24z"/>
<path d="M2270 1450 c0 -27 4 -50 8 -50 5 0 19 11 32 25 13 14 34 25 47 25 23
0 23 -1 23 -127 0 -102 -3 -130 -16 -144 -25 -28 -8 -39 62 -39 67 0 82 13 49
40 -13 11 -15 36 -13 139 3 113 5 126 21 129 11 2 32 -8 48 -24 37 -36 54 -23
44 35 l-7 41 -149 0 -149 0 0 -50z"/>
<path d="M2620 1488 c0 -7 7 -22 15 -32 11 -15 15 -45 13 -120 -1 -115 12
-155 62 -181 42 -22 126 -19 165 5 47 29 58 62 63 185 3 75 9 115 18 126 20
22 8 29 -53 29 -57 0 -62 -4 -38 -30 11 -13 15 -44 16 -131 0 -105 -1 -115
-21 -131 -30 -24 -85 -23 -110 2 -18 18 -20 33 -20 134 0 89 3 116 15 126 28
23 15 30 -55 30 -50 0 -70 -4 -70 -12z"/>
<path d="M3010 1488 c0 -7 7 -22 15 -32 22 -29 21 -243 -1 -274 -22 -31 -10
-42 47 -42 51 0 64 15 34 40 -11 9 -15 35 -15 107 l0 96 50 -64 c28 -35 71
-90 96 -122 34 -44 51 -57 67 -55 21 3 22 7 25 159 2 124 6 160 17 169 26 22
16 30 -38 30 -63 0 -73 -7 -50 -33 13 -14 19 -41 22 -98 2 -45 -1 -79 -6 -79
-5 0 -45 47 -89 105 l-79 105 -47 0 c-32 0 -48 -4 -48 -12z"/>
<path d="M3490 1488 c0 -8 5 -19 12 -26 11 -11 -11 -83 -58 -189 -8 -17 -14
-34 -14 -39 0 -4 -11 -22 -26 -41 -14 -18 -22 -38 -19 -43 8 -13 102 -13 110
0 4 6 1 17 -5 25 -6 8 -10 24 -8 37 3 21 9 23 65 26 61 3 63 2 69 -25 5 -17 3
-28 -4 -31 -7 -2 -12 -12 -12 -23 0 -17 8 -19 69 -19 78 0 93 11 63 43 -11 12
-32 51 -46 87 -14 36 -41 101 -59 145 l-34 80 -52 3 c-38 2 -51 0 -51 -10z
m74 -130 c32 -78 32 -78 -19 -78 -43 0 -46 2 -39 22 12 39 34 88 40 88 3 0 11
-15 18 -32z"/>
<path d="M4270 1486 c0 -7 7 -19 15 -26 23 -19 22 -256 -1 -281 -25 -28 -8
-39 62 -39 66 0 82 13 49 40 -9 8 -15 30 -15 56 0 39 3 44 23 44 17 0 26 -11
40 -45 25 -60 68 -95 117 -95 50 0 61 17 26 42 -14 11 -38 40 -52 64 l-26 44
31 31 c24 24 31 39 31 70 0 55 -12 74 -60 93 -54 21 -240 23 -240 2z m203 -57
c35 -43 8 -95 -55 -106 l-38 -6 0 65 c0 36 3 68 7 72 13 13 67 -3 86 -25z"/>
<path d="M706 939 c-30 -24 -35 -72 -10 -107 11 -16 25 -22 54 -22 46 0 70 26
70 76 0 35 -37 74 -70 74 -10 0 -29 -9 -44 -21z m79 -53 c0 -46 -24 -68 -52
-50 -21 13 -27 36 -19 70 6 21 12 25 39 22 30 -3 32 -5 32 -42z"/>
<path d="M860 942 c0 -39 31 -133 43 -129 6 2 15 17 21 35 14 41 27 41 40 1 6
-18 16 -34 22 -36 11 -4 44 96 44 132 0 27 -17 7 -27 -33 -4 -18 -13 -33 -18
-33 -5 0 -14 15 -18 33 -16 61 -25 56 -51 -25 -8 -24 -26 -12 -26 17 0 12 -7
31 -15 42 -14 18 -14 18 -15 -4z"/>
<path d="M1080 960 c-1 -3 -2 -38 -3 -78 -1 -52 1 -72 11 -72 7 0 12 15 12 40
0 22 3 40 8 40 4 0 20 -18 36 -40 17 -22 33 -40 38 -40 4 0 8 34 8 75 0 43 -4
75 -10 75 -5 0 -10 -21 -10 -47 l0 -48 -45 50 c-24 28 -45 48 -45 45z"/>
<path d="M1300 947 c0 -7 8 -23 17 -37 9 -13 19 -39 22 -59 8 -45 31 -54 31
-12 0 17 11 49 25 71 14 23 21 42 15 45 -6 4 -18 -7 -28 -24 -21 -38 -28 -39
-47 -1 -16 31 -35 40 -35 17z"/>
<path d="M1465 935 c-29 -28 -32 -70 -9 -103 11 -16 25 -22 54 -22 45 0 70 26
70 73 0 33 -40 77 -70 77 -11 0 -32 -11 -45 -25z m86 -31 c7 -20 6 -32 -6 -50
-20 -31 -50 -30 -71 1 -24 37 -6 75 36 75 24 0 33 -6 41 -26z"/>
<path d="M1626 952 c-8 -14 4 -115 16 -129 13 -17 72 -17 86 0 16 19 20 129 5
134 -9 3 -13 -10 -13 -49 0 -64 -9 -81 -41 -76 -22 3 -24 8 -27 66 -3 56 -12
76 -26 54z"/>
<path d="M1794 947 c-8 -23 0 -127 11 -127 6 0 11 5 11 10 1 6 2 15 3 20 2 20
32 9 43 -15 6 -14 17 -25 25 -25 16 0 16 5 3 31 -8 14 -7 25 4 40 27 39 -5 79
-61 79 -19 0 -36 -6 -39 -13z m81 -37 c0 -9 -11 -16 -27 -18 -23 -3 -28 1 -28
18 0 17 5 21 28 18 16 -2 27 -9 27 -18z"/>
<path d="M2026 944 c-9 -8 -16 -21 -16 -28 0 -17 29 -42 58 -50 12 -4 22 -14
22 -23 0 -13 -8 -14 -41 -9 -31 5 -40 3 -37 -6 7 -20 82 -22 98 -3 19 23 -1
60 -40 71 -49 14 -38 26 34 33 5 1 3 8 -4 16 -16 20 -54 19 -74 -1z"/>
<path d="M2167 953 c-4 -3 -7 -37 -7 -75 l0 -68 45 0 c25 0 45 5 45 10 0 6
-13 10 -29 10 -34 0 -44 19 -40 80 3 40 -2 56 -14 43z"/>
<path d="M2297 953 c-2 -5 -2 -33 -1 -63 2 -30 3 -61 4 -67 0 -7 5 -13 10 -13
6 0 10 32 10 75 0 65 -9 93 -23 68z"/>
<path d="M2390 940 c-26 -26 -27 -90 -2 -113 23 -21 76 -22 93 -1 11 14 9 15
-23 9 -41 -8 -68 12 -68 49 0 33 24 50 60 42 32 -6 38 2 18 22 -18 18 -56 14
-78 -8z"/>
<path d="M2540 886 l0 -76 45 0 c25 0 45 5 45 10 0 6 -14 10 -30 10 -19 0 -33
6 -37 16 -7 18 15 36 35 29 8 -3 19 -2 25 2 7 5 -2 10 -23 13 -23 3 -36 11
-38 23 -3 14 4 17 33 17 52 0 40 24 -13 28 l-42 3 0 -75z"/>
<path d="M2765 935 c-50 -49 -20 -125 49 -125 40 0 66 28 66 73 0 33 -40 77
-70 77 -11 0 -32 -11 -45 -25z m81 -29 c13 -52 -18 -92 -53 -70 -22 14 -30 74
-11 85 27 17 57 10 64 -15z"/>
<path d="M2930 886 c0 -44 4 -76 10 -76 6 0 10 14 10 30 0 27 3 30 29 30 17 0
33 5 36 10 3 6 -3 10 -14 10 -30 0 -51 11 -51 26 0 9 12 14 35 14 19 0 35 5
35 10 0 6 -10 10 -22 10 -13 0 -33 3 -45 6 -22 6 -23 4 -23 -70z"/>
<path d="M3137 953 c-4 -3 -7 -37 -7 -75 0 -54 3 -68 15 -68 9 0 15 9 15 24 0
21 6 25 32 28 26 2 35 9 43 32 8 24 6 31 -14 47 -23 19 -71 26 -84 12z m76
-37 c7 -17 -11 -36 -35 -36 -13 0 -18 8 -18 25 0 20 5 25 24 25 13 0 26 -6 29
-14z"/>
<path d="M3296 906 c-34 -76 -39 -96 -26 -96 6 0 13 7 16 15 4 9 19 15 39 15
20 0 35 -6 39 -15 3 -8 12 -15 20 -15 11 0 8 16 -16 75 -17 41 -34 75 -39 75
-5 0 -20 -24 -33 -54z m44 -5 c0 -5 3 -16 6 -25 4 -12 0 -16 -15 -16 -22 0
-25 8 -15 34 7 17 24 22 24 7z"/>
<path d="M3439 953 c-5 -45 1 -138 10 -141 6 -2 11 8 11 22 0 34 33 35 48 1 6
-14 19 -25 27 -25 14 0 14 3 2 27 -12 23 -12 30 2 55 15 28 15 30 -8 49 -22
18 -90 27 -92 12z m81 -43 c0 -16 -7 -20 -30 -20 -23 0 -30 4 -30 20 0 16 7
20 30 20 23 0 30 -4 30 -20z"/>
<path d="M3616 890 c-27 -68 -28 -104 -2 -67 7 9 26 17 41 17 15 0 34 -8 41
-17 24 -34 26 -4 3 54 -24 60 -37 83 -48 83 -3 0 -19 -32 -35 -70z m51 -26
c-3 -4 -13 -4 -22 0 -13 5 -14 10 -4 28 l12 23 10 -23 c6 -12 7 -25 4 -28z"/>
<path d="M3769 925 c-3 -122 -7 -110 39 -113 49 -4 82 23 82 67 0 42 -28 69
-77 75 l-43 5 -1 -34z m79 -7 c7 -7 12 -24 12 -38 0 -32 -17 -50 -47 -50 -21
0 -23 4 -23 50 0 46 2 50 23 50 13 0 28 -5 35 -12z"/>
<path d="M3940 885 c0 -43 4 -75 10 -75 6 0 10 32 10 75 0 43 -4 75 -10 75 -6
0 -10 -32 -10 -75z"/>
<path d="M4022 948 c-7 -7 -12 -23 -12 -36 0 -18 9 -27 40 -39 51 -20 46 -39
-9 -36 -36 2 -41 0 -31 -13 14 -15 67 -19 88 -5 8 4 12 20 10 36 -2 21 -11 30
-38 39 -39 12 -39 30 0 33 44 2 45 3 26 18 -24 18 -58 19 -74 3z"/>
<path d="M4160 885 l0 -75 51 0 c31 0 48 4 44 10 -3 6 -20 10 -36 10 -18 0
-32 6 -36 16 -7 19 15 36 39 28 9 -2 19 0 23 6 4 6 -5 10 -23 10 -17 0 -32 6
-35 14 -8 19 1 26 35 26 15 0 28 5 28 10 0 6 -3 10 -7 11 -5 0 -25 2 -45 4
l-38 4 0 -74z"/>
</g>
</svg>
